<?xml version="1.0" standalone="no"?><?xml-stylesheet type="text/css" href="https://www.processon.com/themes/default/mind/icons/icons.css" ?><!DOCTYPE svg PUBLIC "-//W3C//DTD SVG 1.1//EN" "http://www.w3.org/Graphics/SVG/1.1/DTD/svg11.dtd"><svg id="SvgjsSvg1197" xmlns="http://www.w3.org/2000/svg" version="1.1" xmlns:xlink="http://www.w3.org/1999/xlink" xmlns:svgjs="http://svgjs.com/svgjs" width="729" height="424"><g id="downloadwatermarkid"><defs><pattern patternUnits="userSpaceOnUse" id="pattern_mark_download" width="300" height="300"><text x="0" y="96" fill="rgb(229,229,229,0.8)" font-size="18" transform="rotate(-45, 150, 150)">GeekTime_QL</text></pattern></defs><rect fill="url(#pattern_mark_download)" x="0" y="0" width="729" height="424" id="rect_mark_download" pointer-events="none"></rect></g><rect fill="url(#pattern_mark)" transform="translate(-108,-37)" width="1050" height="1500" id="rect_mark" pointer-events="none"></rect><defs id="SvgjsDefs1198"><pattern patternUnits="userSpaceOnUse" id="pattern_mark" width="300" height="300"><text x="-50" y="150" fill="rgba(229,229,229,0.8)" font-size="18" transform="rotate(-45, 150, 150)"></text></pattern></defs><g id="SvgjsG1199" transform="translate(42,25)"><path id="SvgjsPath1200" d="M0 0L662 0L662 374L0 374Z " stroke="rgba(50,50,50,1)" stroke-width="2" fill-opacity="1" fill="#ffffff"></path><g id="SvgjsG1201"><text id="SvgjsText1202" font-family="微软雅黑" text-anchor="middle" font-size="13px" width="0" fill="#323232" font-weight="400" align="middle" font-style="" opacity="1" y="177.05" transform="rotate(0)"></text></g></g><g id="SvgjsG1203" transform="translate(25,31)"><path id="SvgjsPath1204" d="M0 0L160 0L160 40L0 40Z " stroke="none" fill="none"></path><g id="SvgjsG1205"><text id="SvgjsText1206" font-family="微软雅黑" text-anchor="middle" font-size="13px" width="52" fill="#323232" font-weight="400" align="middle" font-style="" opacity="1" y="10.05" transform="rotate(0)"><tspan id="SvgjsTspan1207" dy="16" x="80.5"><tspan id="SvgjsTspan1208" style="text-decoration:;">Java进程</tspan></tspan></text></g></g><g id="SvgjsG1209" transform="translate(56,78)"><path id="SvgjsPath1210" d="M0 0L335 0L335 233L0 233Z " stroke="rgba(50,50,50,1)" stroke-width="2" fill-opacity="1" fill="#ffffff"></path><g id="SvgjsG1211"><text id="SvgjsText1212" font-family="微软雅黑" text-anchor="middle" font-size="13px" width="0" fill="#323232" font-weight="400" align="middle" font-style="" opacity="1" y="106.55" transform="rotate(0)"></text></g></g><g id="SvgjsG1213" transform="translate(71,82)"><path id="SvgjsPath1214" d="M0 0L320 0L320 31L0 31Z " stroke="none" fill="none"></path><g id="SvgjsG1215"><text id="SvgjsText1216" font-family="微软雅黑" text-anchor="middle" font-size="13px" width="314" fill="#323232" font-weight="400" align="middle" font-style="" opacity="1" y="-2.45" transform="rotate(0)"><tspan id="SvgjsTspan1217" dy="16" x="160.5"><tspan id="SvgjsTspan1218" style="text-decoration:;">Xmx 一般为系统内存的60%-80，Xms一般配置和Xmx</tspan></tspan><tspan id="SvgjsTspan1219" dy="16" x="160.5"><tspan id="SvgjsTspan1220" style="text-decoration:;">一致</tspan></tspan></text></g></g><g id="SvgjsG1221" transform="translate(615,48)"><path id="SvgjsPath1222" d="M0 0L70 0L70 337L0 337Z " stroke="rgba(50,50,50,1)" stroke-width="2" fill-opacity="1" fill="#ffffff"></path><g id="SvgjsG1223"><text id="SvgjsText1224" font-family="微软雅黑" text-anchor="middle" font-size="13px" width="0" fill="#323232" font-weight="400" align="middle" font-style="" opacity="1" y="158.55" transform="rotate(0)"></text></g></g><g id="SvgjsG1225" transform="translate(62,108)"><path id="SvgjsPath1226" d="M0 0L75 0L75 35L0 35Z " stroke="none" fill="none"></path><g id="SvgjsG1227"><text id="SvgjsText1228" font-family="微软雅黑" text-anchor="middle" font-size="13px" width="46" fill="#323232" font-weight="400" align="middle" font-style="" opacity="1" y="7.55" transform="rotate(0)"><tspan id="SvgjsTspan1229" dy="16" x="38"><tspan id="SvgjsTspan1230" style="text-decoration:;">堆Heap</tspan></tspan></text></g></g><g id="SvgjsG1231" transform="translate(617,56)"><path id="SvgjsPath1232" d="M0 0L66 0L66 33L0 33Z " stroke="none" fill="none"></path><g id="SvgjsG1233"><text id="SvgjsText1234" font-family="微软雅黑" text-anchor="middle" font-size="13px" width="33" fill="#323232" font-weight="400" align="middle" font-style="" opacity="1" y="-1.45" transform="rotate(0)"><tspan id="SvgjsTspan1235" dy="16" x="33.5"><tspan id="SvgjsTspan1236" style="text-decoration:;">栈</tspan></tspan><tspan id="SvgjsTspan1237" dy="16" x="33.5"><tspan id="SvgjsTspan1238" style="text-decoration:;">Stack</tspan></tspan></text></g></g><g id="SvgjsG1239" transform="translate(65,150)"><path id="SvgjsPath1240" d="M0 0L190 0L190 150L0 150Z " stroke="rgba(50,50,50,1)" stroke-width="2" fill-opacity="1" fill="#ffffff"></path><g id="SvgjsG1241"><text id="SvgjsText1242" font-family="微软雅黑" text-anchor="middle" font-size="13px" width="0" fill="#323232" font-weight="400" align="middle" font-style="" opacity="1" y="65.05" transform="rotate(0)"></text></g></g><g id="SvgjsG1243" transform="translate(267,150)"><path id="SvgjsPath1244" d="M0 0L86 0L86 79L0 79Z " stroke="rgba(50,50,50,1)" stroke-width="2" fill-opacity="1" fill="#ffffff"></path><g id="SvgjsG1245"><text id="SvgjsText1246" font-family="微软雅黑" text-anchor="middle" font-size="13px" width="49" fill="#323232" font-weight="400" align="middle" font-style="" opacity="1" y="21.55" transform="rotate(0)"><tspan id="SvgjsTspan1247" dy="16" x="43.5"><tspan id="SvgjsTspan1248" style="text-decoration:;">老年代</tspan></tspan><tspan id="SvgjsTspan1249" dy="16" x="43.5"><tspan id="SvgjsTspan1250" style="text-decoration:;">old-gen</tspan></tspan></text></g></g><g id="SvgjsG1251" transform="translate(65,150)"><path id="SvgjsPath1252" d="M0 0L190 0L190 25L0 25Z " stroke="none" fill="none"></path><g id="SvgjsG1253"><text id="SvgjsText1254" font-family="微软雅黑" text-anchor="middle" font-size="13px" width="112" fill="#323232" font-weight="400" align="middle" font-style="" opacity="1" y="2.55" transform="rotate(0)"><tspan id="SvgjsTspan1255" dy="16" x="95.5"><tspan id="SvgjsTspan1256" style="text-decoration:;">年轻代 young-gen</tspan></tspan></text></g></g><g id="SvgjsG1257" transform="translate(74,175)"><path id="SvgjsPath1258" d="M0 4Q0 0 4 0L168 0Q172 0 172 4L172 51Q172 55 168 55L4 55Q0 55 0 51Z " stroke="rgba(50,50,50,1)" stroke-width="2" fill-opacity="1" fill="#ffffff"></path><g id="SvgjsG1259"><text id="SvgjsText1260" font-family="微软雅黑" text-anchor="middle" font-size="13px" width="72" fill="#323232" font-weight="400" align="middle" font-style="" opacity="1" y="9.55" transform="rotate(0)"><tspan id="SvgjsTspan1261" dy="16" x="86.5"><tspan id="SvgjsTspan1262" style="text-decoration:;">新生代</tspan></tspan><tspan id="SvgjsTspan1263" dy="16" x="86.5"><tspan id="SvgjsTspan1264" style="text-decoration:;">Eden-space</tspan></tspan></text></g></g><g id="SvgjsG1265" transform="translate(74,229)"><path id="SvgjsPath1266" d="M0 4Q0 0 4 0L168 0Q172 0 172 4L172 29Q172 33 168 33L4 33Q0 33 0 29Z " stroke="rgba(50,50,50,1)" stroke-width="2" fill-opacity="1" fill="#ffffff"></path><g id="SvgjsG1267"><text id="SvgjsText1268" font-family="微软雅黑" text-anchor="middle" font-size="13px" width="15" fill="#323232" font-weight="400" align="middle" font-style="" opacity="1" y="6.55" transform="rotate(0)"><tspan id="SvgjsTspan1269" dy="16" x="86.5"><tspan id="SvgjsTspan1270" style="text-decoration:;">S0</tspan></tspan></text></g></g><g id="SvgjsG1271" transform="translate(74,262)"><path id="SvgjsPath1272" d="M0 4Q0 0 4 0L168 0Q172 0 172 4L172 29Q172 33 168 33L4 33Q0 33 0 29Z " stroke="rgba(50,50,50,1)" stroke-width="2" fill-opacity="1" fill="#ffffff"></path><g id="SvgjsG1273"><text id="SvgjsText1274" font-family="微软雅黑" text-anchor="middle" font-size="13px" width="15" fill="#323232" font-weight="400" align="middle" font-style="" opacity="1" y="6.55" transform="rotate(0)"><tspan id="SvgjsTspan1275" dy="16" x="86.5"><tspan id="SvgjsTspan1276" style="text-decoration:;">S1</tspan></tspan></text></g></g><g id="SvgjsG1277" transform="translate(624,108)"><path id="SvgjsPath1278" d="M0 4Q0 0 4 0L48 0Q52 0 52 4L52 44Q52 48 48 48L4 48Q0 48 0 44Z " stroke="rgba(50,50,50,1)" stroke-width="2" fill-opacity="1" fill="#ffffff"></path><g id="SvgjsG1279"><text id="SvgjsText1280" font-family="微软雅黑" text-anchor="middle" font-size="13px" width="26" fill="#323232" font-weight="400" align="middle" font-style="" opacity="1" y="-1.95" transform="rotate(0)"><tspan id="SvgjsTspan1281" dy="16" x="26.5"><tspan id="SvgjsTspan1282" style="text-decoration:;">线程</tspan></tspan><tspan id="SvgjsTspan1283" dy="16" x="26.5"><tspan id="SvgjsTspan1284" style="text-decoration:;">栈1 </tspan></tspan><tspan id="SvgjsTspan1285" dy="16" x="26.5"><tspan id="SvgjsTspan1286" style="text-decoration:;">Xss</tspan></tspan></text></g></g><g id="SvgjsG1287" transform="translate(623,240)"><path id="SvgjsPath1288" d="M0 4Q0 0 4 0L48 0Q52 0 52 4L52 44Q52 48 48 48L4 48Q0 48 0 44Z " stroke="rgba(50,50,50,1)" stroke-width="2" fill-opacity="1" fill="#ffffff"></path><g id="SvgjsG1289"><text id="SvgjsText1290" font-family="微软雅黑" text-anchor="middle" font-size="13px" width="26" fill="#323232" font-weight="400" align="middle" font-style="" opacity="1" y="-1.95" transform="rotate(0)"><tspan id="SvgjsTspan1291" dy="16" x="26.5"><tspan id="SvgjsTspan1292" style="text-decoration:;">线程</tspan></tspan><tspan id="SvgjsTspan1293" dy="16" x="26.5"><tspan id="SvgjsTspan1294" style="text-decoration:;">栈3 </tspan></tspan><tspan id="SvgjsTspan1295" dy="16" x="26.5"><tspan id="SvgjsTspan1296" style="text-decoration:;">Xss</tspan></tspan></text></g></g><g id="SvgjsG1297" transform="translate(623,172.5)"><path id="SvgjsPath1298" d="M0 4Q0 0 4 0L48 0Q52 0 52 4L52 44Q52 48 48 48L4 48Q0 48 0 44Z " stroke="rgba(50,50,50,1)" stroke-width="2" fill-opacity="1" fill="#ffffff"></path><g id="SvgjsG1299"><text id="SvgjsText1300" font-family="微软雅黑" text-anchor="middle" font-size="13px" width="26" fill="#323232" font-weight="400" align="middle" font-style="" opacity="1" y="-1.95" transform="rotate(0)"><tspan id="SvgjsTspan1301" dy="16" x="26.5"><tspan id="SvgjsTspan1302" style="text-decoration:;">线程</tspan></tspan><tspan id="SvgjsTspan1303" dy="16" x="26.5"><tspan id="SvgjsTspan1304" style="text-decoration:;">栈2 </tspan></tspan><tspan id="SvgjsTspan1305" dy="16" x="26.5"><tspan id="SvgjsTspan1306" style="text-decoration:;">Xss</tspan></tspan></text></g></g><g id="SvgjsG1307" transform="translate(399.5,78)"><path id="SvgjsPath1308" d="M0 0L111.5 0L111.5 277L0 277Z " stroke="rgba(50,50,50,1)" stroke-width="2" fill-opacity="1" fill="#ffffff"></path><g id="SvgjsG1309"><text id="SvgjsText1310" font-family="微软雅黑" text-anchor="middle" font-size="13px" width="0" fill="#323232" font-weight="400" align="middle" font-style="" opacity="1" y="128.55" transform="rotate(0)"></text></g></g><g id="SvgjsG1311" transform="translate(394.125,78)"><path id="SvgjsPath1312" d="M0 0L120.75 0L120.75 20L0 20Z " stroke="none" fill="none"></path><g id="SvgjsG1313"><text id="SvgjsText1314" font-family="微软雅黑" text-anchor="middle" font-size="13px" width="91" fill="#323232" font-weight="400" align="middle" font-style="" opacity="1" y="0.050000000000000044" transform="rotate(0)"><tspan id="SvgjsTspan1315" dy="16" x="61"><tspan id="SvgjsTspan1316" style="text-decoration:;">非堆Non-Heap</tspan></tspan></text></g></g><g id="SvgjsG1317" transform="translate(407,111)"><path id="SvgjsPath1318" d="M0 4Q0 0 4 0L96 0Q100 0 100 4L100 62Q100 66 96 66L4 66Q0 66 0 62Z " stroke="rgba(50,50,50,1)" stroke-width="2" fill-opacity="1" fill="#ffffff"></path><g id="SvgjsG1319"><text id="SvgjsText1320" font-family="微软雅黑" text-anchor="middle" font-size="13px" width="0" fill="#323232" font-weight="400" align="middle" font-style="" opacity="1" y="23.05" transform="rotate(0)"></text></g></g><g id="SvgjsG1321" transform="translate(411.25,116)"><path id="SvgjsPath1322" d="M0 0L91.5 0L91.5 56L0 56Z " stroke="none" fill="none"></path><g id="SvgjsG1323"><text id="SvgjsText1324" font-family="微软雅黑" text-anchor="middle" font-size="13px" width="82" fill="#323232" font-weight="400" align="middle" font-style="" opacity="1" y="2.05" transform="rotate(0)"><tspan id="SvgjsTspan1325" dy="16" x="46.5"><tspan id="SvgjsTspan1326" style="text-decoration:;">MetaSpace元</tspan></tspan><tspan id="SvgjsTspan1327" dy="16" x="46.5"><tspan id="SvgjsTspan1328" style="text-decoration:;">数据区（常量</tspan></tspan><tspan id="SvgjsTspan1329" dy="16" x="46.5"><tspan id="SvgjsTspan1330" style="text-decoration:;">池-方法区）</tspan></tspan></text></g></g><g id="SvgjsG1331" transform="translate(407,189)"><path id="SvgjsPath1332" d="M0 4Q0 0 4 0L96 0Q100 0 100 4L100 27.5Q100 31.5 96 31.5L4 31.5Q0 31.5 0 27.5Z " stroke="rgba(50,50,50,1)" stroke-width="2" fill-opacity="1" fill="#ffffff"></path><g id="SvgjsG1333"><text id="SvgjsText1334" font-family="微软雅黑" text-anchor="middle" font-size="13px" width="78" fill="#323232" font-weight="400" align="middle" font-style="" opacity="1" y="-2.2" transform="rotate(0)"><tspan id="SvgjsTspan1335" dy="16" x="50.5"><tspan id="SvgjsTspan1336" style="text-decoration:;">Compressed </tspan></tspan><tspan id="SvgjsTspan1337" dy="16" x="50.5"><tspan id="SvgjsTspan1338" style="text-decoration:;">Class Space</tspan></tspan></text></g></g><g id="SvgjsG1339" transform="translate(407,230)"><path id="SvgjsPath1340" d="M0 4Q0 0 4 0L96 0Q100 0 100 4L100 28Q100 32 96 32L4 32Q0 32 0 28Z " stroke="rgba(50,50,50,1)" stroke-width="2" fill-opacity="1" fill="#ffffff"></path><g id="SvgjsG1341"><text id="SvgjsText1342" font-family="微软雅黑" text-anchor="middle" font-size="13px" width="74" fill="#323232" font-weight="400" align="middle" font-style="" opacity="1" y="6.05" transform="rotate(0)"><tspan id="SvgjsTspan1343" dy="16" x="50.5"><tspan id="SvgjsTspan1344" style="text-decoration:;">Code Cache</tspan></tspan></text></g></g><g id="SvgjsG1345" transform="translate(529,78)"><path id="SvgjsPath1346" d="M0 0L66 0L66 277L0 277Z " stroke="rgba(50,50,50,1)" stroke-width="2" fill-opacity="1" fill="#ffffff"></path><g id="SvgjsG1347"><text id="SvgjsText1348" font-family="微软雅黑" text-anchor="middle" font-size="13px" width="45" fill="#323232" font-weight="400" align="middle" font-style="" opacity="1" y="104.55" transform="rotate(0)"><tspan id="SvgjsTspan1349" dy="16" x="33.5"><tspan id="SvgjsTspan1350" style="text-decoration:;">MaxDir</tspan></tspan><tspan id="SvgjsTspan1351" dy="16" x="33.5"><tspan id="SvgjsTspan1352" style="text-decoration:;">ectMe</tspan></tspan><tspan id="SvgjsTspan1353" dy="16" x="33.5"><tspan id="SvgjsTspan1354" style="text-decoration:;">morySi</tspan></tspan><tspan id="SvgjsTspan1355" dy="16" x="33.5"><tspan id="SvgjsTspan1356" style="text-decoration:;">ze</tspan></tspan></text></g></g><g id="SvgjsG1357" transform="translate(511,73)"><path id="SvgjsPath1358" d="M0 0L91 0L91 38L0 38Z " stroke="none" fill="none"></path><g id="SvgjsG1359"><text id="SvgjsText1360" font-family="微软雅黑" text-anchor="middle" font-size="13px" width="26" fill="#323232" font-weight="400" align="middle" font-style="" opacity="1" y="9.05" transform="rotate(0)"><tspan id="SvgjsTspan1361" dy="16" x="46"><tspan id="SvgjsTspan1362" style="text-decoration:;">堆外</tspan></tspan></text></g></g><g id="SvgjsG1363" transform="translate(407.5,291)"><path id="SvgjsPath1364" d="M0 0L99 0L99 38L0 38Z " stroke="none" fill="none"></path><g id="SvgjsG1365"><text id="SvgjsText1366" font-family="微软雅黑" text-anchor="middle" font-size="13px" width="94" fill="#323232" font-weight="400" align="middle" font-style="" opacity="1" y="1.05" transform="rotate(0)"><tspan id="SvgjsTspan1367" dy="16" x="50"><tspan id="SvgjsTspan1368" style="text-decoration:;">MaxMetaspace</tspan></tspan><tspan id="SvgjsTspan1369" dy="16" x="50"><tspan id="SvgjsTspan1370" style="text-decoration:;">Size</tspan></tspan></text></g></g><g id="SvgjsG1371" transform="translate(56,311)"><path id="SvgjsPath1372" d="M0 4Q0 0 4 0L331 0Q335 0 335 4L335 40Q335 44 331 44L4 44Q0 44 0 40Z " stroke="rgba(50,50,50,1)" stroke-width="2" fill-opacity="1" fill="#ffffff"></path><g id="SvgjsG1373"><text id="SvgjsText1374" font-family="微软雅黑" text-anchor="middle" font-size="13px" width="147" fill="#323232" font-weight="400" align="middle" font-style="" opacity="1" y="4.05" transform="rotate(0)"><tspan id="SvgjsTspan1375" dy="16" x="168"><tspan id="SvgjsTspan1376" style="text-decoration:;">Xmn等同于-XX:NewSize</tspan></tspan><tspan id="SvgjsTspan1377" dy="16" x="168"><tspan id="SvgjsTspan1378" style="text-decoration:;">设置为 -Xmx 的 1/2 ~ ¼</tspan></tspan></text></g></g><g id="SvgjsG1379" transform="translate(623,307)"><path id="SvgjsPath1380" d="M0 4Q0 0 4 0L48 0Q52 0 52 4L52 44Q52 48 48 48L4 48Q0 48 0 44Z " stroke="rgba(50,50,50,1)" stroke-width="2" fill-opacity="1" fill="#ffffff"></path><g id="SvgjsG1381"><text id="SvgjsText1382" font-family="微软雅黑" text-anchor="middle" font-size="13px" width="26" fill="#323232" font-weight="400" align="middle" font-style="" opacity="1" y="-1.95" transform="rotate(0)"><tspan id="SvgjsTspan1383" dy="16" x="26.5"><tspan id="SvgjsTspan1384" style="text-decoration:;">线程</tspan></tspan><tspan id="SvgjsTspan1385" dy="16" x="26.5"><tspan id="SvgjsTspan1386" style="text-decoration:;">栈4 </tspan></tspan><tspan id="SvgjsTspan1387" dy="16" x="26.5"><tspan id="SvgjsTspan1388" style="text-decoration:;">Xss</tspan></tspan></text></g></g></svg>